<svg width="800" height="800" viewBox="0 0 800 800" xmlns="http://www.w3.org/2000/svg">
  <defs>
    <radialGradient id="goldGradient" cx="50%" cy="50%" r="50%" fx="50%" fy="50%">
      <stop offset="0%" style="stop-color:#f7f0c7;stop-opacity:1" />
      <stop offset="50%" style="stop-color:#d4af37;stop-opacity:1" />
      <stop offset="100%" style="stop-color:#b48e28;stop-opacity:1" />
    </radialGradient>
    <linearGradient id="maroonGradient" x1="0%" y1="0%" x2="100%" y2="100%">
      <stop offset="0%" style="stop-color:#5d001e;stop-opacity:1" />
      <stop offset="100%" style="stop-color:#4a001e;stop-opacity:1" />
    </linearGradient>
  </defs>
  <rect width="800" height="800" fill="url(#maroonGradient)" />
  <g transform="translate(400, 400)">
    <path d="M0,-300 C150,-200 250,-100 300,0 C250,100 150,200 0,300 C-150,200 -250,100 -300,0 C-250,-100 -150,-200 0,-300 Z" fill="url(#goldGradient)" stroke="#f7f0c7" stroke-width="5"/>
    <path d="M-300,0 C-200,150 -100,250 0,300 C100,250 200,150 300,0 C200,-150 100,-250 0,-300 C-100,-250 -200,-150 -300,0 Z" fill="url(#goldGradient)" stroke="#f7f0c7" stroke-width="5" transform="rotate(90)"/>
  </g>
</svg>
